<svg width="318" height="270" viewBox="0 0 318 270" fill="none" xmlns="http://www.w3.org/2000/svg">
<path d="M5.0672 38.6113H300.231C301.575 38.6113 302.864 39.1166 303.814 40.0159C304.765 40.9153 305.299 42.1351 305.299 43.4069V265.204C305.299 266.476 304.765 267.696 303.814 268.595C302.864 269.495 301.575 270 300.231 270H5.0672C3.72329 270 2.43443 269.495 1.48415 268.595C0.533864 267.696 0 266.476 0 265.204V43.4069C0 42.1351 0.533864 40.9153 1.48415 40.0159C2.43443 39.1166 3.72329 38.6113 5.0672 38.6113Z" fill="#FB6C04"/>
<g opacity="0.5">
<path opacity="0.5" d="M269.907 92.3105C295.709 92.3105 316.626 73.728 316.626 50.8054C316.626 27.8828 295.709 9.30029 269.907 9.30029C244.105 9.30029 223.188 27.8828 223.188 50.8054C223.188 73.728 244.105 92.3105 269.907 92.3105Z" stroke="white"/>
</g>
<path d="M249.724 98.9527C280.481 98.9527 305.414 77.0997 305.414 50.1427C305.414 23.1857 280.481 1.33276 249.724 1.33276C218.968 1.33276 194.035 23.1857 194.035 50.1427C194.035 77.0997 218.968 98.9527 249.724 98.9527Z" stroke="white"/>
<g opacity="0.2">
<path opacity="0.2" d="M234.401 115.555C264.95 115.555 289.716 93.5531 289.716 66.4127C289.716 39.2724 264.95 17.2708 234.401 17.2708C203.851 17.2708 179.085 39.2724 179.085 66.4127C179.085 93.5531 203.851 115.555 234.401 115.555Z" stroke="white"/>
</g>
<path d="M51.3106 61.5034C49.0555 61.5059 46.8933 62.4752 45.2972 64.1992L38.6406 71.4028L36.6725 73.5327L25.8965 85.2017C25.1059 86.0556 24.4787 87.0698 24.0508 88.1864C23.6229 89.3029 23.4026 90.4998 23.4026 91.7086C23.4026 92.9174 23.6229 94.1143 24.0508 95.2308C24.4787 96.3473 25.1059 97.3616 25.8965 98.2155L30.1104 102.776L32.5846 105.453L45.2984 119.218C46.0887 120.074 47.0273 120.752 48.0604 121.214C49.0934 121.677 50.2007 121.914 51.3186 121.912C52.4365 121.91 53.5431 121.67 54.5749 121.204C55.6068 120.739 56.5437 120.058 57.3318 119.2L72.0429 103.289L76.737 98.2216C78.3275 96.4927 79.2195 94.1518 79.2174 91.7122C79.2153 89.2726 78.3192 86.9335 76.7258 85.2078L74.5834 82.8954L65.4627 73.0203L57.3351 64.2053C56.5445 63.3481 55.6054 62.6683 54.5716 62.2047C53.5378 61.741 52.4296 61.5027 51.3106 61.5034V61.5034ZM51.3106 67.5448C51.6946 67.5386 52.0757 67.6169 52.4309 67.7751C52.7861 67.9332 53.1078 68.1679 53.3765 68.4649V68.4649L57.5736 73.0069L50.8258 80.3165L44.5572 73.5266L49.2401 68.4649C49.509 68.1668 49.8314 67.9314 50.1874 67.7732C50.5435 67.615 50.9257 67.5373 51.3106 67.5448V67.5448ZM61.521 77.2812L66.9394 83.151L60.1523 90.413L54.7766 84.5944L61.521 77.2812ZM40.6211 77.8118L46.8852 84.5956L34.0466 98.5015L29.8326 93.9449C29.2862 93.3533 28.9792 92.5511 28.9792 91.7147C28.9792 90.8782 29.2862 90.076 29.8326 89.4844V89.4844L40.6211 77.8118ZM70.8924 87.4264L72.784 89.4735C73.0626 89.7637 73.2825 90.1133 73.4298 90.5003C73.5771 90.8872 73.6486 91.303 73.6398 91.7214V91.7396C73.6408 92.1537 73.565 92.5638 73.4171 92.9457C73.2691 93.3276 73.0519 93.6736 72.7784 93.9632L68.0955 99.0188L64.0997 94.6873L70.8924 87.4264ZM50.8315 88.8711L64.1492 103.289L53.372 114.952H53.3607C52.8128 115.54 52.0719 115.869 51.3004 115.867C50.5288 115.864 49.7896 115.531 49.2446 114.94L37.9985 102.77L50.8315 88.8711Z" fill="white"/>
<path d="M31.4392 180.672L37.5916 197.02L43.7292 180.672H48.5193V202H44.8279V194.969L45.1941 185.564L38.8953 202H36.2439L29.9597 185.579L30.3259 194.969V202H26.6345V180.672H31.4392ZM51.9031 193.929C51.9031 192.376 52.2107 190.979 52.8259 189.739C53.4412 188.489 54.3054 187.532 55.4187 186.868C56.532 186.194 57.8113 185.857 59.2566 185.857C61.3953 185.857 63.1287 186.546 64.4568 187.923C65.7947 189.3 66.5173 191.126 66.6248 193.401L66.6394 194.236C66.6394 195.799 66.3367 197.195 65.7312 198.426C65.1355 199.656 64.2761 200.608 63.1531 201.282C62.0398 201.956 60.7507 202.293 59.2859 202.293C57.0496 202.293 55.2576 201.551 53.9099 200.066C52.572 198.572 51.9031 196.585 51.9031 194.104V193.929ZM55.4626 194.236C55.4626 195.867 55.7996 197.146 56.4734 198.074C57.1472 198.992 58.0847 199.451 59.2859 199.451C60.4871 199.451 61.4197 198.982 62.0837 198.045C62.7576 197.107 63.0945 195.735 63.0945 193.929C63.0945 192.327 62.7478 191.058 62.0544 190.12C61.3708 189.183 60.4382 188.714 59.2566 188.714C58.0945 188.714 57.1716 189.178 56.488 190.105C55.8044 191.023 55.4626 192.4 55.4626 194.236ZM74.1101 182.298V186.15H76.908V188.787H74.1101V197.635C74.1101 198.24 74.2273 198.68 74.4617 198.953C74.7058 199.217 75.1355 199.349 75.7507 199.349C76.1609 199.349 76.5759 199.3 76.9958 199.202V201.956C76.1853 202.181 75.4041 202.293 74.6521 202.293C71.9177 202.293 70.5505 200.784 70.5505 197.767V188.787H67.9431V186.15H70.5505V182.298H74.1101ZM83.4265 202H79.8669V186.15H83.4265V202ZM79.6472 182.034C79.6472 181.487 79.8181 181.033 80.1599 180.672C80.5115 180.311 81.0095 180.13 81.6541 180.13C82.2986 180.13 82.7966 180.311 83.1482 180.672C83.4998 181.033 83.6755 181.487 83.6755 182.034C83.6755 182.571 83.4998 183.021 83.1482 183.382C82.7966 183.733 82.2986 183.909 81.6541 183.909C81.0095 183.909 80.5115 183.733 80.1599 183.382C79.8181 183.021 79.6472 182.571 79.6472 182.034ZM92.9041 197.488L96.2585 186.15H99.9353L94.4421 202H91.3513L85.8142 186.15H89.5056L92.9041 197.488ZM111.405 202C111.249 201.697 111.112 201.204 110.995 200.521C109.862 201.702 108.475 202.293 106.835 202.293C105.243 202.293 103.944 201.839 102.938 200.931C101.932 200.022 101.429 198.899 101.429 197.562C101.429 195.872 102.054 194.578 103.304 193.68C104.564 192.771 106.361 192.317 108.695 192.317H110.878V191.277C110.878 190.457 110.648 189.803 110.189 189.314C109.73 188.816 109.032 188.567 108.094 188.567C107.284 188.567 106.62 188.772 106.102 189.183C105.585 189.583 105.326 190.096 105.326 190.721H101.766C101.766 189.852 102.054 189.041 102.631 188.289C103.207 187.527 103.988 186.932 104.974 186.502C105.97 186.072 107.079 185.857 108.3 185.857C110.155 185.857 111.635 186.326 112.738 187.264C113.842 188.191 114.408 189.5 114.437 191.189V198.338C114.437 199.764 114.637 200.901 115.038 201.751V202H111.405ZM107.494 199.437C108.197 199.437 108.856 199.266 109.471 198.924C110.096 198.582 110.565 198.123 110.878 197.547V194.559H108.959C107.64 194.559 106.649 194.788 105.985 195.247C105.321 195.706 104.989 196.355 104.989 197.195C104.989 197.879 105.214 198.426 105.663 198.836C106.122 199.236 106.732 199.437 107.494 199.437ZM122.626 182.298V186.15H125.424V188.787H122.626V197.635C122.626 198.24 122.743 198.68 122.977 198.953C123.221 199.217 123.651 199.349 124.266 199.349C124.677 199.349 125.092 199.3 125.511 199.202V201.956C124.701 202.181 123.92 202.293 123.168 202.293C120.433 202.293 119.066 200.784 119.066 197.767V188.787H116.459V186.15H119.066V182.298H122.626ZM131.942 202H128.383V186.15H131.942V202ZM128.163 182.034C128.163 181.487 128.334 181.033 128.676 180.672C129.027 180.311 129.525 180.13 130.17 180.13C130.814 180.13 131.312 180.311 131.664 180.672C132.015 181.033 132.191 181.487 132.191 182.034C132.191 182.571 132.015 183.021 131.664 183.382C131.312 183.733 130.814 183.909 130.17 183.909C129.525 183.909 129.027 183.733 128.676 183.382C128.334 183.021 128.163 182.571 128.163 182.034ZM135.165 193.929C135.165 192.376 135.472 190.979 136.088 189.739C136.703 188.489 137.567 187.532 138.68 186.868C139.794 186.194 141.073 185.857 142.518 185.857C144.657 185.857 146.39 186.546 147.719 187.923C149.056 189.3 149.779 191.126 149.886 193.401L149.901 194.236C149.901 195.799 149.598 197.195 148.993 198.426C148.397 199.656 147.538 200.608 146.415 201.282C145.302 201.956 144.012 202.293 142.548 202.293C140.311 202.293 138.519 201.551 137.172 200.066C135.834 198.572 135.165 196.585 135.165 194.104V193.929ZM138.724 194.236C138.724 195.867 139.061 197.146 139.735 198.074C140.409 198.992 141.346 199.451 142.548 199.451C143.749 199.451 144.681 198.982 145.345 198.045C146.019 197.107 146.356 195.735 146.356 193.929C146.356 192.327 146.01 191.058 145.316 190.12C144.633 189.183 143.7 188.714 142.518 188.714C141.356 188.714 140.433 189.178 139.75 190.105C139.066 191.023 138.724 192.4 138.724 194.236ZM156.215 186.15L156.317 187.981C157.489 186.565 159.027 185.857 160.931 185.857C164.232 185.857 165.912 187.747 165.97 191.526V202H162.411V191.731C162.411 190.726 162.191 189.983 161.752 189.505C161.322 189.017 160.614 188.772 159.628 188.772C158.192 188.772 157.123 189.422 156.42 190.721V202H152.86V186.15H156.215ZM183.988 196.243C183.988 195.257 184.257 194.354 184.794 193.533C185.331 192.703 186.39 191.722 187.972 190.589C187.142 189.544 186.561 188.655 186.229 187.923C185.907 187.19 185.746 186.482 185.746 185.799C185.746 184.129 186.254 182.811 187.269 181.844C188.285 180.867 189.652 180.379 191.371 180.379C192.924 180.379 194.193 180.838 195.179 181.756C196.176 182.664 196.674 183.792 196.674 185.14C196.674 186.028 196.449 186.849 196 187.601C195.551 188.343 194.813 189.085 193.788 189.827L192.338 190.882L196.454 195.745C197.05 194.573 197.347 193.27 197.347 191.834H200.438C200.438 194.461 199.823 196.614 198.593 198.294L201.727 202H197.596L196.395 200.579C194.872 201.722 193.055 202.293 190.946 202.293C188.837 202.293 187.147 201.736 185.878 200.623C184.618 199.5 183.988 198.04 183.988 196.243ZM191.049 199.451C192.25 199.451 193.373 199.051 194.418 198.25L189.76 192.757L189.305 193.079C188.134 193.968 187.548 194.983 187.548 196.126C187.548 197.112 187.865 197.913 188.5 198.528C189.135 199.144 189.984 199.451 191.049 199.451ZM189.086 185.711C189.086 186.531 189.589 187.562 190.594 188.802L192.22 187.688L192.675 187.322C193.28 186.785 193.583 186.097 193.583 185.257C193.583 184.7 193.373 184.227 192.953 183.836C192.533 183.436 192.001 183.235 191.356 183.235C190.663 183.235 190.111 183.47 189.701 183.938C189.291 184.407 189.086 184.998 189.086 185.711ZM37.8113 229.075V237H34.1052V215.672H42.2644C44.6472 215.672 46.5369 216.292 47.9333 217.532C49.3396 218.772 50.0427 220.413 50.0427 222.454C50.0427 224.544 49.3542 226.17 47.9773 227.332C46.6101 228.494 44.6912 229.075 42.2205 229.075H37.8113ZM37.8113 226.102H42.2644C43.5828 226.102 44.5886 225.794 45.282 225.179C45.9753 224.554 46.322 223.655 46.322 222.483C46.322 221.331 45.9705 220.413 45.2673 219.729C44.5642 219.036 43.5974 218.68 42.3669 218.66H37.8113V226.102ZM61.2488 224.402C60.78 224.324 60.2966 224.285 59.7986 224.285C58.1677 224.285 57.0691 224.91 56.5027 226.16V237H52.9431V221.15H56.3416L56.4294 222.923C57.2888 221.546 58.4802 220.857 60.0037 220.857C60.5115 220.857 60.9314 220.926 61.2634 221.062L61.2488 224.402ZM62.3035 228.929C62.3035 227.376 62.6111 225.979 63.2263 224.739C63.8416 223.489 64.7058 222.532 65.8191 221.868C66.9324 221.194 68.2117 220.857 69.657 220.857C71.7957 220.857 73.5291 221.546 74.8572 222.923C76.1951 224.3 76.9177 226.126 77.0251 228.401L77.0398 229.236C77.0398 230.799 76.7371 232.195 76.1316 233.426C75.5359 234.656 74.6765 235.608 73.5535 236.282C72.4402 236.956 71.1511 237.293 69.6863 237.293C67.45 237.293 65.658 236.551 64.3103 235.066C62.9724 233.572 62.3035 231.585 62.3035 229.104V228.929ZM65.863 229.236C65.863 230.867 66.2 232.146 66.8738 233.074C67.5476 233.992 68.4851 234.451 69.6863 234.451C70.8875 234.451 71.8201 233.982 72.4841 233.045C73.158 232.107 73.4949 230.735 73.4949 228.929C73.4949 227.327 73.1482 226.058 72.4548 225.12C71.7712 224.183 70.8386 223.714 69.657 223.714C68.4949 223.714 67.572 224.178 66.8884 225.105C66.2048 226.023 65.863 227.4 65.863 229.236ZM81.3025 237V223.787H78.8855V221.15H81.3025V219.7C81.3025 217.942 81.7908 216.585 82.7673 215.628C83.7439 214.671 85.1111 214.192 86.8689 214.192C87.4939 214.192 88.158 214.28 88.8611 214.456L88.7732 217.239C88.3826 217.161 87.9285 217.122 87.4109 217.122C85.7117 217.122 84.8621 217.996 84.8621 219.744V221.15H88.0847V223.787H84.8621V237H81.3025ZM97.3132 237.293C95.0574 237.293 93.2263 236.585 91.8201 235.169C90.4236 233.743 89.7253 231.849 89.7253 229.485V229.046C89.7253 227.464 90.0281 226.053 90.6335 224.812C91.2488 223.562 92.1082 222.591 93.2117 221.897C94.3152 221.204 95.5457 220.857 96.9031 220.857C99.0613 220.857 100.726 221.546 101.898 222.923C103.08 224.3 103.671 226.248 103.671 228.768V230.203H93.3142C93.4216 231.512 93.8562 232.547 94.6179 233.309C95.3894 234.07 96.3562 234.451 97.5183 234.451C99.1492 234.451 100.477 233.792 101.503 232.474L103.422 234.305C102.787 235.252 101.937 235.989 100.873 236.517C99.8181 237.034 98.6316 237.293 97.3132 237.293ZM96.8884 223.714C95.9119 223.714 95.1208 224.056 94.5154 224.739C93.9197 225.423 93.5388 226.375 93.3728 227.596H100.155V227.332C100.077 226.141 99.7595 225.242 99.2029 224.637C98.6462 224.021 97.8748 223.714 96.8884 223.714ZM115.331 232.693C115.331 232.059 115.067 231.575 114.54 231.243C114.022 230.911 113.158 230.618 111.947 230.364C110.736 230.11 109.725 229.788 108.915 229.397C107.137 228.538 106.249 227.293 106.249 225.662C106.249 224.295 106.825 223.152 107.977 222.234C109.13 221.316 110.594 220.857 112.372 220.857C114.266 220.857 115.795 221.326 116.957 222.264C118.129 223.201 118.715 224.417 118.715 225.911H115.155C115.155 225.228 114.901 224.661 114.393 224.212C113.885 223.753 113.212 223.523 112.372 223.523C111.591 223.523 110.951 223.704 110.453 224.065C109.965 224.427 109.72 224.91 109.72 225.516C109.72 226.062 109.95 226.487 110.409 226.79C110.868 227.093 111.796 227.4 113.192 227.713C114.589 228.016 115.682 228.382 116.473 228.812C117.274 229.231 117.865 229.739 118.246 230.335C118.636 230.931 118.832 231.653 118.832 232.503C118.832 233.929 118.241 235.086 117.059 235.975C115.878 236.854 114.33 237.293 112.416 237.293C111.117 237.293 109.96 237.059 108.944 236.59C107.928 236.121 107.137 235.477 106.571 234.656C106.005 233.836 105.721 232.952 105.721 232.005H109.178C109.227 232.845 109.545 233.494 110.131 233.953C110.717 234.402 111.493 234.627 112.46 234.627C113.397 234.627 114.11 234.451 114.598 234.1C115.087 233.738 115.331 233.27 115.331 232.693ZM130.829 232.693C130.829 232.059 130.565 231.575 130.038 231.243C129.52 230.911 128.656 230.618 127.445 230.364C126.234 230.11 125.223 229.788 124.413 229.397C122.635 228.538 121.747 227.293 121.747 225.662C121.747 224.295 122.323 223.152 123.475 222.234C124.628 221.316 126.093 220.857 127.87 220.857C129.764 220.857 131.293 221.326 132.455 222.264C133.627 223.201 134.213 224.417 134.213 225.911H130.653C130.653 225.228 130.399 224.661 129.891 224.212C129.384 223.753 128.71 223.523 127.87 223.523C127.089 223.523 126.449 223.704 125.951 224.065C125.463 224.427 125.219 224.91 125.219 225.516C125.219 226.062 125.448 226.487 125.907 226.79C126.366 227.093 127.294 227.4 128.69 227.713C130.087 228.016 131.18 228.382 131.971 228.812C132.772 229.231 133.363 229.739 133.744 230.335C134.135 230.931 134.33 231.653 134.33 232.503C134.33 233.929 133.739 235.086 132.557 235.975C131.376 236.854 129.828 237.293 127.914 237.293C126.615 237.293 125.458 237.059 124.442 236.59C123.427 236.121 122.635 235.477 122.069 234.656C121.503 233.836 121.219 232.952 121.219 232.005H124.677C124.725 232.845 125.043 233.494 125.629 233.953C126.215 234.402 126.991 234.627 127.958 234.627C128.895 234.627 129.608 234.451 130.096 234.1C130.585 233.738 130.829 233.27 130.829 232.693ZM141.229 237H137.67V221.15H141.229V237ZM137.45 217.034C137.45 216.487 137.621 216.033 137.963 215.672C138.314 215.311 138.812 215.13 139.457 215.13C140.101 215.13 140.599 215.311 140.951 215.672C141.302 216.033 141.478 216.487 141.478 217.034C141.478 217.571 141.302 218.021 140.951 218.382C140.599 218.733 140.101 218.909 139.457 218.909C138.812 218.909 138.314 218.733 137.963 218.382C137.621 218.021 137.45 217.571 137.45 217.034ZM144.452 228.929C144.452 227.376 144.76 225.979 145.375 224.739C145.99 223.489 146.854 222.532 147.968 221.868C149.081 221.194 150.36 220.857 151.805 220.857C153.944 220.857 155.677 221.546 157.006 222.923C158.344 224.3 159.066 226.126 159.174 228.401L159.188 229.236C159.188 230.799 158.885 232.195 158.28 233.426C157.684 234.656 156.825 235.608 155.702 236.282C154.589 236.956 153.3 237.293 151.835 237.293C149.598 237.293 147.806 236.551 146.459 235.066C145.121 233.572 144.452 231.585 144.452 229.104V228.929ZM148.011 229.236C148.011 230.867 148.348 232.146 149.022 233.074C149.696 233.992 150.634 234.451 151.835 234.451C153.036 234.451 153.969 233.982 154.633 233.045C155.306 232.107 155.643 230.735 155.643 228.929C155.643 227.327 155.297 226.058 154.603 225.12C153.92 224.183 152.987 223.714 151.805 223.714C150.643 223.714 149.72 224.178 149.037 225.105C148.353 226.023 148.011 227.4 148.011 229.236ZM165.502 221.15L165.604 222.981C166.776 221.565 168.314 220.857 170.219 220.857C173.519 220.857 175.199 222.747 175.258 226.526V237H171.698V226.731C171.698 225.726 171.478 224.983 171.039 224.505C170.609 224.017 169.901 223.772 168.915 223.772C167.479 223.772 166.41 224.422 165.707 225.721V237H162.147V221.15H165.502ZM188.368 237C188.212 236.697 188.075 236.204 187.958 235.521C186.825 236.702 185.438 237.293 183.798 237.293C182.206 237.293 180.907 236.839 179.901 235.931C178.895 235.022 178.392 233.899 178.392 232.562C178.392 230.872 179.017 229.578 180.267 228.68C181.527 227.771 183.324 227.317 185.658 227.317H187.841V226.277C187.841 225.457 187.611 224.803 187.152 224.314C186.693 223.816 185.995 223.567 185.057 223.567C184.247 223.567 183.583 223.772 183.065 224.183C182.548 224.583 182.289 225.096 182.289 225.721H178.729C178.729 224.852 179.017 224.041 179.594 223.289C180.17 222.527 180.951 221.932 181.937 221.502C182.933 221.072 184.042 220.857 185.262 220.857C187.118 220.857 188.597 221.326 189.701 222.264C190.804 223.191 191.371 224.5 191.4 226.189V233.338C191.4 234.764 191.6 235.901 192.001 236.751V237H188.368ZM184.457 234.437C185.16 234.437 185.819 234.266 186.434 233.924C187.059 233.582 187.528 233.123 187.841 232.547V229.559H185.922C184.603 229.559 183.612 229.788 182.948 230.247C182.284 230.706 181.952 231.355 181.952 232.195C181.952 232.879 182.177 233.426 182.626 233.836C183.085 234.236 183.695 234.437 184.457 234.437ZM198.915 237H195.355V214.5H198.915V237ZM206.591 237H203.031V221.15H206.591V237ZM202.811 217.034C202.811 216.487 202.982 216.033 203.324 215.672C203.676 215.311 204.174 215.13 204.818 215.13C205.463 215.13 205.961 215.311 206.312 215.672C206.664 216.033 206.84 216.487 206.84 217.034C206.84 217.571 206.664 218.021 206.312 218.382C205.961 218.733 205.463 218.909 204.818 218.909C204.174 218.909 203.676 218.733 203.324 218.382C202.982 218.021 202.811 217.571 202.811 217.034ZM219.364 232.693C219.364 232.059 219.1 231.575 218.573 231.243C218.055 230.911 217.191 230.618 215.98 230.364C214.769 230.11 213.759 229.788 212.948 229.397C211.171 228.538 210.282 227.293 210.282 225.662C210.282 224.295 210.858 223.152 212.01 222.234C213.163 221.316 214.628 220.857 216.405 220.857C218.3 220.857 219.828 221.326 220.99 222.264C222.162 223.201 222.748 224.417 222.748 225.911H219.188C219.188 225.228 218.934 224.661 218.427 224.212C217.919 223.753 217.245 223.523 216.405 223.523C215.624 223.523 214.984 223.704 214.486 224.065C213.998 224.427 213.754 224.91 213.754 225.516C213.754 226.062 213.983 226.487 214.442 226.79C214.901 227.093 215.829 227.4 217.225 227.713C218.622 228.016 219.716 228.382 220.507 228.812C221.307 229.231 221.898 229.739 222.279 230.335C222.67 230.931 222.865 231.653 222.865 232.503C222.865 233.929 222.274 235.086 221.093 235.975C219.911 236.854 218.363 237.293 216.449 237.293C215.15 237.293 213.993 237.059 212.977 236.59C211.962 236.121 211.171 235.477 210.604 234.656C210.038 233.836 209.755 232.952 209.755 232.005H213.212C213.26 232.845 213.578 233.494 214.164 233.953C214.75 234.402 215.526 234.627 216.493 234.627C217.43 234.627 218.143 234.451 218.632 234.1C219.12 233.738 219.364 233.27 219.364 232.693ZM229.325 221.15L229.427 222.806C230.541 221.507 232.064 220.857 233.998 220.857C236.117 220.857 237.567 221.668 238.348 223.289C239.501 221.668 241.122 220.857 243.212 220.857C244.96 220.857 246.259 221.341 247.108 222.308C247.968 223.274 248.407 224.7 248.427 226.585V237H244.867V226.688C244.867 225.682 244.647 224.944 244.208 224.476C243.768 224.007 243.041 223.772 242.025 223.772C241.215 223.772 240.551 223.992 240.033 224.432C239.525 224.861 239.169 225.428 238.964 226.131L238.978 237H235.419V226.57C235.37 224.705 234.418 223.772 232.562 223.772C231.136 223.772 230.126 224.354 229.53 225.516V237H225.97V221.15H229.325Z" fill="white"/>
</svg>
