<svg width="317" height="270" viewBox="0 0 317 270" fill="none" xmlns="http://www.w3.org/2000/svg">
<path d="M4.76349 38.6113H282.237C283.5 38.6113 284.711 39.1166 285.605 40.0159C286.498 40.9153 287 42.1351 287 43.4069V265.204C287 266.476 286.498 267.696 285.605 268.595C284.711 269.495 283.5 270 282.237 270H4.76349C3.50013 270 2.28852 269.495 1.39519 268.595C0.501866 267.696 0 266.476 0 265.204V43.4069C0 42.1351 0.501866 40.9153 1.39519 40.0159C2.28852 39.1166 3.50013 38.6113 4.76349 38.6113Z" fill="#FB6C04"/>
<g opacity="0.5">
<path opacity="0.5" d="M253.73 92.3105C277.985 92.3105 297.649 73.728 297.649 50.8054C297.649 27.8828 277.985 9.30029 253.73 9.30029C229.474 9.30029 209.811 27.8828 209.811 50.8054C209.811 73.728 229.474 92.3105 253.73 92.3105Z" stroke="white"/>
</g>
<path d="M234.757 98.9527C263.669 98.9527 287.108 77.0997 287.108 50.1427C287.108 23.1857 263.669 1.33276 234.757 1.33276C205.844 1.33276 182.405 23.1857 182.405 50.1427C182.405 77.0997 205.844 98.9527 234.757 98.9527Z" stroke="white"/>
<g opacity="0.2">
<path opacity="0.2" d="M220.352 115.555C249.07 115.555 272.352 93.5531 272.352 66.4127C272.352 39.2724 249.07 17.2708 220.352 17.2708C191.633 17.2708 168.352 39.2724 168.352 66.4127C168.352 93.5531 191.633 115.555 220.352 115.555Z" stroke="white"/>
</g>
<path d="M41.458 192.962H32.874V202H29.168V180.672H42.7178V183.66H32.874V190.003H41.458V192.962ZM54.5977 200.447C53.5527 201.678 52.0684 202.293 50.1445 202.293C48.4258 202.293 47.1221 201.79 46.2334 200.784C45.3545 199.778 44.915 198.323 44.915 196.419V186.15H48.4746V196.375C48.4746 198.387 49.3096 199.393 50.9795 199.393C52.708 199.393 53.875 198.772 54.4805 197.532V186.15H58.04V202H54.6855L54.5977 200.447ZM65.4521 202H61.8926V179.5H65.4521V202ZM73.1279 202H69.5684V179.5H73.1279V202ZM88.9482 182.298V186.15H91.7461V188.787H88.9482V197.635C88.9482 198.24 89.0654 198.68 89.2998 198.953C89.5439 199.217 89.9736 199.349 90.5889 199.349C90.999 199.349 91.4141 199.3 91.834 199.202V201.956C91.0234 202.181 90.2422 202.293 89.4902 202.293C86.7559 202.293 85.3887 200.784 85.3887 197.767V188.787H82.7812V186.15H85.3887V182.298H88.9482ZM98.2646 202H94.7051V186.15H98.2646V202ZM94.4854 182.034C94.4854 181.487 94.6562 181.033 94.998 180.672C95.3496 180.311 95.8477 180.13 96.4922 180.13C97.1367 180.13 97.6348 180.311 97.9863 180.672C98.3379 181.033 98.5137 181.487 98.5137 182.034C98.5137 182.571 98.3379 183.021 97.9863 183.382C97.6348 183.733 97.1367 183.909 96.4922 183.909C95.8477 183.909 95.3496 183.733 94.998 183.382C94.6562 183.021 94.4854 182.571 94.4854 182.034ZM105.501 186.15L105.604 187.806C106.717 186.507 108.24 185.857 110.174 185.857C112.293 185.857 113.743 186.668 114.524 188.289C115.677 186.668 117.298 185.857 119.388 185.857C121.136 185.857 122.435 186.341 123.284 187.308C124.144 188.274 124.583 189.7 124.603 191.585V202H121.043V191.688C121.043 190.682 120.823 189.944 120.384 189.476C119.944 189.007 119.217 188.772 118.201 188.772C117.391 188.772 116.727 188.992 116.209 189.432C115.701 189.861 115.345 190.428 115.14 191.131L115.154 202H111.595V191.57C111.546 189.705 110.594 188.772 108.738 188.772C107.312 188.772 106.302 189.354 105.706 190.516V202H102.146V186.15H105.501ZM135.237 202.293C132.981 202.293 131.15 201.585 129.744 200.169C128.348 198.743 127.649 196.849 127.649 194.485V194.046C127.649 192.464 127.952 191.053 128.558 189.812C129.173 188.562 130.032 187.591 131.136 186.897C132.239 186.204 133.47 185.857 134.827 185.857C136.985 185.857 138.65 186.546 139.822 187.923C141.004 189.3 141.595 191.248 141.595 193.768V195.203H131.238C131.346 196.512 131.78 197.547 132.542 198.309C133.313 199.07 134.28 199.451 135.442 199.451C137.073 199.451 138.401 198.792 139.427 197.474L141.346 199.305C140.711 200.252 139.861 200.989 138.797 201.517C137.742 202.034 136.556 202.293 135.237 202.293ZM134.812 188.714C133.836 188.714 133.045 189.056 132.439 189.739C131.844 190.423 131.463 191.375 131.297 192.596H138.079V192.332C138.001 191.141 137.684 190.242 137.127 189.637C136.57 189.021 135.799 188.714 134.812 188.714ZM52.9131 230.057C52.6982 232.332 51.8584 234.109 50.3936 235.389C48.9287 236.658 46.9805 237.293 44.5488 237.293C42.8496 237.293 41.3506 236.893 40.0518 236.092C38.7627 235.281 37.7666 234.134 37.0635 232.649C36.3604 231.165 35.9941 229.441 35.9648 227.479V225.486C35.9648 223.475 36.3213 221.702 37.0342 220.169C37.7471 218.636 38.7676 217.454 40.0957 216.624C41.4336 215.794 42.9766 215.379 44.7246 215.379C47.0781 215.379 48.9727 216.019 50.4082 217.298C51.8438 218.577 52.6787 220.384 52.9131 222.718H49.2217C49.0459 221.185 48.5967 220.081 47.874 219.407C47.1611 218.724 46.1113 218.382 44.7246 218.382C43.1133 218.382 41.873 218.973 41.0039 220.154C40.1445 221.326 39.7051 223.05 39.6855 225.325V227.215C39.6855 229.52 40.0957 231.277 40.916 232.488C41.7461 233.699 42.957 234.305 44.5488 234.305C46.0039 234.305 47.0977 233.978 47.8301 233.323C48.5625 232.669 49.0264 231.58 49.2217 230.057H52.9131ZM55.2275 228.929C55.2275 227.376 55.5352 225.979 56.1504 224.739C56.7656 223.489 57.6299 222.532 58.7432 221.868C59.8564 221.194 61.1357 220.857 62.5811 220.857C64.7197 220.857 66.4531 221.546 67.7812 222.923C69.1191 224.3 69.8418 226.126 69.9492 228.401L69.9639 229.236C69.9639 230.799 69.6611 232.195 69.0557 233.426C68.46 234.656 67.6006 235.608 66.4775 236.282C65.3643 236.956 64.0752 237.293 62.6104 237.293C60.374 237.293 58.582 236.551 57.2344 235.066C55.8965 233.572 55.2275 231.585 55.2275 229.104V228.929ZM58.7871 229.236C58.7871 230.867 59.124 232.146 59.7979 233.074C60.4717 233.992 61.4092 234.451 62.6104 234.451C63.8115 234.451 64.7441 233.982 65.4082 233.045C66.082 232.107 66.4189 230.735 66.4189 228.929C66.4189 227.327 66.0723 226.058 65.3789 225.12C64.6953 224.183 63.7627 223.714 62.5811 223.714C61.4189 223.714 60.4961 224.178 59.8125 225.105C59.1289 226.023 58.7871 227.4 58.7871 229.236ZM76.3213 221.15L76.4238 222.806C77.5371 221.507 79.0605 220.857 80.9941 220.857C83.1133 220.857 84.5635 221.668 85.3447 223.289C86.4971 221.668 88.1182 220.857 90.208 220.857C91.9561 220.857 93.2549 221.341 94.1045 222.308C94.9639 223.274 95.4033 224.7 95.4229 226.585V237H91.8633V226.688C91.8633 225.682 91.6436 224.944 91.2041 224.476C90.7646 224.007 90.0371 223.772 89.0215 223.772C88.2109 223.772 87.5469 223.992 87.0293 224.432C86.5215 224.861 86.165 225.428 85.96 226.131L85.9746 237H82.415V226.57C82.3662 224.705 81.4141 223.772 79.5586 223.772C78.1328 223.772 77.1221 224.354 76.5264 225.516V237H72.9668V221.15H76.3213ZM102.425 221.15L102.527 222.806C103.641 221.507 105.164 220.857 107.098 220.857C109.217 220.857 110.667 221.668 111.448 223.289C112.601 221.668 114.222 220.857 116.312 220.857C118.06 220.857 119.358 221.341 120.208 222.308C121.067 223.274 121.507 224.7 121.526 226.585V237H117.967V226.688C117.967 225.682 117.747 224.944 117.308 224.476C116.868 224.007 116.141 223.772 115.125 223.772C114.314 223.772 113.65 223.992 113.133 224.432C112.625 224.861 112.269 225.428 112.063 226.131L112.078 237H108.519V226.57C108.47 224.705 107.518 223.772 105.662 223.772C104.236 223.772 103.226 224.354 102.63 225.516V237H99.0703V221.15H102.425ZM128.968 237H125.408V221.15H128.968V237ZM125.188 217.034C125.188 216.487 125.359 216.033 125.701 215.672C126.053 215.311 126.551 215.13 127.195 215.13C127.84 215.13 128.338 215.311 128.689 215.672C129.041 216.033 129.217 216.487 129.217 217.034C129.217 217.571 129.041 218.021 128.689 218.382C128.338 218.733 127.84 218.909 127.195 218.909C126.551 218.909 126.053 218.733 125.701 218.382C125.359 218.021 125.188 217.571 125.188 217.034ZM137.317 217.298V221.15H140.115V223.787H137.317V232.635C137.317 233.24 137.435 233.68 137.669 233.953C137.913 234.217 138.343 234.349 138.958 234.349C139.368 234.349 139.783 234.3 140.203 234.202V236.956C139.393 237.181 138.611 237.293 137.859 237.293C135.125 237.293 133.758 235.784 133.758 232.767V223.787H131.15V221.15H133.758V217.298H137.317ZM146.194 221.15L146.297 222.806C147.41 221.507 148.934 220.857 150.867 220.857C152.986 220.857 154.437 221.668 155.218 223.289C156.37 221.668 157.991 220.857 160.081 220.857C161.829 220.857 163.128 221.341 163.978 222.308C164.837 223.274 165.276 224.7 165.296 226.585V237H161.736V226.688C161.736 225.682 161.517 224.944 161.077 224.476C160.638 224.007 159.91 223.772 158.895 223.772C158.084 223.772 157.42 223.992 156.902 224.432C156.395 224.861 156.038 225.428 155.833 226.131L155.848 237H152.288V226.57C152.239 224.705 151.287 223.772 149.432 223.772C148.006 223.772 146.995 224.354 146.399 225.516V237H142.84V221.15H146.194ZM175.931 237.293C173.675 237.293 171.844 236.585 170.438 235.169C169.041 233.743 168.343 231.849 168.343 229.485V229.046C168.343 227.464 168.646 226.053 169.251 224.812C169.866 223.562 170.726 222.591 171.829 221.897C172.933 221.204 174.163 220.857 175.521 220.857C177.679 220.857 179.344 221.546 180.516 222.923C181.697 224.3 182.288 226.248 182.288 228.768V230.203H171.932C172.039 231.512 172.474 232.547 173.235 233.309C174.007 234.07 174.974 234.451 176.136 234.451C177.767 234.451 179.095 233.792 180.12 232.474L182.039 234.305C181.404 235.252 180.555 235.989 179.49 236.517C178.436 237.034 177.249 237.293 175.931 237.293ZM175.506 223.714C174.529 223.714 173.738 224.056 173.133 224.739C172.537 225.423 172.156 226.375 171.99 227.596H178.772V227.332C178.694 226.141 178.377 225.242 177.82 224.637C177.264 224.021 176.492 223.714 175.506 223.714ZM188.367 221.15L188.47 222.981C189.642 221.565 191.18 220.857 193.084 220.857C196.385 220.857 198.064 222.747 198.123 226.526V237H194.563V226.731C194.563 225.726 194.344 224.983 193.904 224.505C193.475 224.017 192.767 223.772 191.78 223.772C190.345 223.772 189.275 224.422 188.572 225.721V237H185.013V221.15H188.367ZM206.224 217.298V221.15H209.021V223.787H206.224V232.635C206.224 233.24 206.341 233.68 206.575 233.953C206.819 234.217 207.249 234.349 207.864 234.349C208.274 234.349 208.689 234.3 209.109 234.202V236.956C208.299 237.181 207.518 237.293 206.766 237.293C204.031 237.293 202.664 235.784 202.664 232.767V223.787H200.057V221.15H202.664V217.298H206.224Z" fill="white"/>
<path d="M48.2353 61.5034C46.1154 61.5059 44.0828 62.4752 42.5823 64.1992L36.3247 71.4028L34.4746 73.5327L24.3444 85.2017C23.6012 86.0556 23.0116 87.0698 22.6093 88.1864C22.2071 89.3029 22 90.4998 22 91.7086C22 92.9174 22.2071 94.1143 22.6093 95.2308C23.0116 96.3473 23.6012 97.3616 24.3444 98.2155L28.3058 102.776L30.6316 105.453L42.5834 119.218C43.3264 120.074 44.2087 120.752 45.1799 121.214C46.151 121.677 47.1919 121.914 48.2428 121.912C49.2937 121.91 50.334 121.67 51.304 121.204C52.274 120.739 53.1547 120.058 53.8956 119.2L67.7249 103.289L72.1377 98.2216C73.6329 96.4927 74.4714 94.1518 74.4694 91.7122C74.4674 89.2726 73.6251 86.9335 72.1272 85.2078L70.1132 82.8954L61.5392 73.0203L53.8987 64.2053C53.1555 63.3481 52.2727 62.6683 51.3009 62.2047C50.329 61.741 49.2873 61.5027 48.2353 61.5034V61.5034ZM48.2353 67.5448C48.5963 67.5386 48.9546 67.6169 49.2885 67.7751C49.6223 67.9332 49.9248 68.1679 50.1774 68.4649V68.4649L54.1229 73.0069L47.7796 80.3165L41.8867 73.5266L46.2889 68.4649C46.5417 68.1668 46.8447 67.9314 47.1795 67.7732C47.5142 67.615 47.8735 67.5373 48.2353 67.5448V67.5448ZM57.8337 77.2812L62.9273 83.151L56.547 90.413L51.4936 84.5944L57.8337 77.2812ZM38.1865 77.8118L44.0751 84.5956L32.006 98.5015L28.0446 93.9449C27.5309 93.3533 27.2424 92.5511 27.2424 91.7147C27.2424 90.8782 27.5309 90.076 28.0446 89.4844V89.4844L38.1865 77.8118ZM66.6434 87.4264L68.4216 89.4735C68.6835 89.7637 68.8903 90.1133 69.0288 90.5003C69.1672 90.8872 69.2345 91.303 69.2262 91.7214V91.7396C69.2271 92.1537 69.1558 92.5638 69.0168 92.9457C68.8777 93.3276 68.6735 93.6736 68.4164 93.9632L64.0141 99.0188L60.2579 94.6873L66.6434 87.4264ZM47.7849 88.8711L60.3044 103.289L50.1731 114.952H50.1626C49.6475 115.54 48.951 115.869 48.2257 115.867C47.5004 115.864 46.8054 115.531 46.2932 114.94L35.721 102.77L47.7849 88.8711Z" fill="white"/>
</svg>
