<svg width="299" height="270" viewBox="0 0 299 270" fill="none" xmlns="http://www.w3.org/2000/svg">
<path d="M4.76349 38.6113H282.237C283.5 38.6113 284.711 39.1166 285.605 40.0159C286.498 40.9153 287 42.1351 287 43.4069V265.204C287 266.476 286.498 267.696 285.605 268.595C284.711 269.495 283.5 270 282.237 270H4.76349C3.50013 270 2.28852 269.495 1.39519 268.595C0.501866 267.696 0 266.476 0 265.204V43.4069C0 42.1351 0.501866 40.9153 1.39519 40.0159C2.28852 39.1166 3.50013 38.6113 4.76349 38.6113Z" fill="#FB6C04"/>
<g opacity="0.5">
<path opacity="0.5" d="M253.73 92.3105C277.985 92.3105 297.649 73.728 297.649 50.8054C297.649 27.8828 277.985 9.30029 253.73 9.30029C229.474 9.30029 209.811 27.8828 209.811 50.8054C209.811 73.728 229.474 92.3105 253.73 92.3105Z" stroke="white"/>
</g>
<path d="M234.757 98.9527C263.669 98.9527 287.108 77.0997 287.108 50.1427C287.108 23.1857 263.669 1.33276 234.757 1.33276C205.844 1.33276 182.405 23.1857 182.405 50.1427C182.405 77.0997 205.844 98.9527 234.757 98.9527Z" stroke="white"/>
<g opacity="0.2">
<path opacity="0.2" d="M220.352 115.555C249.07 115.555 272.352 93.5531 272.352 66.4127C272.352 39.2724 249.07 17.2708 220.352 17.2708C191.633 17.2708 168.352 39.2724 168.352 66.4127C168.352 93.5531 191.633 115.555 220.352 115.555Z" stroke="white"/>
</g>
<path d="M48.2353 61.5034C46.1154 61.5059 44.0828 62.4752 42.5823 64.1992L36.3247 71.4028L34.4746 73.5327L24.3444 85.2017C23.6012 86.0556 23.0116 87.0698 22.6093 88.1864C22.2071 89.3029 22 90.4998 22 91.7086C22 92.9174 22.2071 94.1143 22.6093 95.2308C23.0116 96.3473 23.6012 97.3616 24.3444 98.2155L28.3058 102.776L30.6316 105.453L42.5834 119.218C43.3264 120.074 44.2087 120.752 45.1799 121.214C46.151 121.677 47.1919 121.914 48.2428 121.912C49.2937 121.91 50.334 121.67 51.304 121.204C52.274 120.739 53.1547 120.058 53.8956 119.2L67.7249 103.289L72.1377 98.2216C73.6329 96.4927 74.4714 94.1517 74.4694 91.7122C74.4674 89.2726 73.6251 86.9335 72.1272 85.2078L70.1132 82.8954L61.5392 73.0203L53.8987 64.2053C53.1555 63.3481 52.2727 62.6683 51.3009 62.2047C50.329 61.741 49.2873 61.5027 48.2353 61.5034ZM48.2353 67.5448C48.5963 67.5386 48.9546 67.6169 49.2885 67.7751C49.6223 67.9332 49.9248 68.1679 50.1774 68.4649L54.1229 73.0069L47.7796 80.3165L41.8867 73.5266L46.2889 68.4649C46.5417 68.1668 46.8447 67.9314 47.1795 67.7732C47.5142 67.615 47.8735 67.5373 48.2353 67.5448ZM57.8337 77.2812L62.9273 83.151L56.547 90.413L51.4936 84.5944L57.8337 77.2812ZM38.1865 77.8118L44.0751 84.5956L32.006 98.5015L28.0446 93.9449C27.5309 93.3533 27.2424 92.5511 27.2424 91.7147C27.2424 90.8782 27.5309 90.076 28.0446 89.4844L38.1865 77.8118ZM66.6434 87.4264L68.4216 89.4735C68.6835 89.7637 68.8903 90.1133 69.0288 90.5003C69.1672 90.8872 69.2345 91.303 69.2262 91.7214V91.7396C69.2271 92.1537 69.1558 92.5638 69.0168 92.9457C68.8777 93.3277 68.6735 93.6736 68.4164 93.9632L64.0141 99.0188L60.2579 94.6873L66.6434 87.4264ZM47.7849 88.8711L60.3044 103.289L50.1731 114.952H50.1626C49.6475 115.54 48.951 115.869 48.2257 115.867C47.5004 115.864 46.8054 115.531 46.2932 114.94L35.721 102.77L47.7849 88.8711Z" fill="white"/>
<path d="M38.9639 192.404C38.9639 191.574 38.6709 190.939 38.085 190.5C37.499 190.051 36.4443 189.582 34.9209 189.094C33.3975 188.596 32.1914 188.107 31.3027 187.629C28.8809 186.32 27.6699 184.558 27.6699 182.341C27.6699 181.188 27.9922 180.163 28.6367 179.265C29.291 178.356 30.2236 177.648 31.4346 177.141C32.6553 176.633 34.0225 176.379 35.5361 176.379C37.0596 176.379 38.417 176.657 39.6084 177.214C40.7998 177.761 41.7227 178.537 42.377 179.543C43.041 180.549 43.373 181.691 43.373 182.971H38.9785C38.9785 181.994 38.6709 181.237 38.0557 180.7C37.4404 180.153 36.5762 179.88 35.4629 179.88C34.3887 179.88 33.5537 180.109 32.958 180.568C32.3623 181.018 32.0645 181.613 32.0645 182.355C32.0645 183.049 32.4111 183.63 33.1045 184.099C33.8076 184.567 34.8379 185.007 36.1953 185.417C38.6953 186.169 40.5166 187.102 41.6592 188.215C42.8018 189.328 43.373 190.715 43.373 192.375C43.373 194.221 42.6748 195.671 41.2783 196.726C39.8818 197.771 38.002 198.293 35.6387 198.293C33.998 198.293 32.5039 197.995 31.1562 197.399C29.8086 196.794 28.7783 195.969 28.0654 194.924C27.3623 193.879 27.0107 192.668 27.0107 191.291H31.4199C31.4199 193.645 32.8262 194.821 35.6387 194.821C36.6836 194.821 37.499 194.611 38.085 194.191C38.6709 193.762 38.9639 193.166 38.9639 192.404ZM53.3779 198.293C51.0537 198.293 49.1592 197.58 47.6943 196.154C46.2393 194.729 45.5117 192.829 45.5117 190.456V190.046C45.5117 188.454 45.8193 187.033 46.4346 185.783C47.0498 184.523 47.9189 183.557 49.042 182.883C50.1748 182.199 51.4639 181.857 52.9092 181.857C55.0771 181.857 56.7812 182.541 58.0215 183.908C59.2715 185.275 59.8965 187.214 59.8965 189.724V191.452H49.8037C49.9404 192.487 50.3506 193.317 51.0342 193.942C51.7275 194.567 52.6016 194.88 53.6562 194.88C55.2871 194.88 56.5615 194.289 57.4795 193.107L59.5596 195.437C58.9248 196.335 58.0654 197.038 56.9814 197.546C55.8975 198.044 54.6963 198.293 53.3779 198.293ZM52.8945 185.285C52.0547 185.285 51.3711 185.568 50.8438 186.135C50.3262 186.701 49.9941 187.512 49.8477 188.566H55.7363V188.229C55.7168 187.292 55.4629 186.569 54.9746 186.062C54.4863 185.544 53.793 185.285 52.8945 185.285ZM66.7812 198H62.5332V175.5H66.7812V198ZM71.4395 198V185.256H69.0811V182.15H71.4395V180.803C71.4395 179.025 71.9473 177.648 72.9629 176.672C73.9883 175.686 75.4189 175.192 77.2549 175.192C77.8408 175.192 78.5586 175.29 79.4082 175.485L79.3643 178.767C79.0127 178.679 78.583 178.635 78.0752 178.635C76.4834 178.635 75.6875 179.382 75.6875 180.876V182.15H78.8369V185.256H75.6875V198H71.4395ZM39.7695 229.47H49.1006V233H35.375V211.672H39.7695V229.47ZM58.6514 233.293C56.3271 233.293 54.4326 232.58 52.9678 231.154C51.5127 229.729 50.7852 227.829 50.7852 225.456V225.046C50.7852 223.454 51.0928 222.033 51.708 220.783C52.3232 219.523 53.1924 218.557 54.3154 217.883C55.4482 217.199 56.7373 216.857 58.1826 216.857C60.3506 216.857 62.0547 217.541 63.2949 218.908C64.5449 220.275 65.1699 222.214 65.1699 224.724V226.452H55.0771C55.2139 227.487 55.624 228.317 56.3076 228.942C57.001 229.567 57.875 229.88 58.9297 229.88C60.5605 229.88 61.835 229.289 62.7529 228.107L64.833 230.437C64.1982 231.335 63.3389 232.038 62.2549 232.546C61.1709 233.044 59.9697 233.293 58.6514 233.293ZM58.168 220.285C57.3281 220.285 56.6445 220.568 56.1172 221.135C55.5996 221.701 55.2676 222.512 55.1211 223.566H61.0098V223.229C60.9902 222.292 60.7363 221.569 60.248 221.062C59.7598 220.544 59.0664 220.285 58.168 220.285ZM76.7715 233C76.5762 232.619 76.4346 232.146 76.3467 231.579C75.3213 232.722 73.9883 233.293 72.3477 233.293C70.7949 233.293 69.5059 232.844 68.4805 231.945C67.4648 231.047 66.957 229.914 66.957 228.547C66.957 226.867 67.5771 225.578 68.8174 224.68C70.0674 223.781 71.8691 223.327 74.2227 223.317H76.1709V222.409C76.1709 221.677 75.9805 221.091 75.5996 220.651C75.2285 220.212 74.6377 219.992 73.8271 219.992C73.1143 219.992 72.5527 220.163 72.1426 220.505C71.7422 220.847 71.542 221.315 71.542 221.911H67.3086C67.3086 220.993 67.5918 220.144 68.1582 219.362C68.7246 218.581 69.5254 217.971 70.5605 217.531C71.5957 217.082 72.7578 216.857 74.0469 216.857C76 216.857 77.5479 217.351 78.6904 218.337C79.8428 219.313 80.4189 220.69 80.4189 222.468V229.338C80.4287 230.842 80.6387 231.979 81.0488 232.751V233H76.7715ZM73.2705 230.056C73.8955 230.056 74.4717 229.919 74.999 229.646C75.5264 229.362 75.917 228.986 76.1709 228.518V225.793H74.5889C72.4697 225.793 71.3418 226.525 71.2051 227.99L71.1904 228.239C71.1904 228.767 71.376 229.201 71.7471 229.543C72.1182 229.885 72.626 230.056 73.2705 230.056ZM92.5771 221.12C92.001 221.042 91.4932 221.003 91.0537 221.003C89.4521 221.003 88.4023 221.545 87.9043 222.629V233H83.6709V217.15H87.6699L87.7871 219.04C88.6367 217.585 89.8135 216.857 91.3174 216.857C91.7861 216.857 92.2256 216.921 92.6357 217.048L92.5771 221.12ZM98.5244 217.15L98.6562 218.981C99.7891 217.565 101.308 216.857 103.212 216.857C104.892 216.857 106.142 217.351 106.962 218.337C107.782 219.323 108.202 220.798 108.222 222.761V233H103.988V222.863C103.988 221.965 103.793 221.315 103.402 220.915C103.012 220.505 102.362 220.3 101.454 220.3C100.263 220.3 99.3691 220.808 98.7734 221.823V233H94.54V217.15H98.5244ZM115.912 233H111.664V217.15H115.912V233ZM111.415 213.049C111.415 212.414 111.625 211.892 112.045 211.481C112.475 211.071 113.056 210.866 113.788 210.866C114.511 210.866 115.087 211.071 115.517 211.481C115.946 211.892 116.161 212.414 116.161 213.049C116.161 213.693 115.941 214.221 115.502 214.631C115.072 215.041 114.501 215.246 113.788 215.246C113.075 215.246 112.499 215.041 112.06 214.631C111.63 214.221 111.415 213.693 111.415 213.049ZM123.31 217.15L123.441 218.981C124.574 217.565 126.093 216.857 127.997 216.857C129.677 216.857 130.927 217.351 131.747 218.337C132.567 219.323 132.987 220.798 133.007 222.761V233H128.773V222.863C128.773 221.965 128.578 221.315 128.188 220.915C127.797 220.505 127.147 220.3 126.239 220.3C125.048 220.3 124.154 220.808 123.559 221.823V233H119.325V217.15H123.31ZM135.614 224.958C135.614 222.526 136.19 220.568 137.343 219.084C138.505 217.6 140.067 216.857 142.03 216.857C143.769 216.857 145.121 217.453 146.088 218.645L146.264 217.15H150.102V232.473C150.102 233.859 149.784 235.065 149.149 236.091C148.524 237.116 147.641 237.897 146.498 238.435C145.355 238.972 144.018 239.24 142.484 239.24C141.322 239.24 140.189 239.006 139.086 238.537C137.982 238.078 137.147 237.482 136.581 236.75L138.456 234.172C139.511 235.354 140.79 235.944 142.294 235.944C143.417 235.944 144.291 235.642 144.916 235.036C145.541 234.44 145.854 233.591 145.854 232.487V231.638C144.877 232.741 143.593 233.293 142.001 233.293C140.097 233.293 138.554 232.551 137.372 231.066C136.2 229.572 135.614 227.595 135.614 225.134V224.958ZM139.848 225.266C139.848 226.701 140.136 227.829 140.712 228.649C141.288 229.46 142.079 229.865 143.085 229.865C144.374 229.865 145.297 229.382 145.854 228.415V221.75C145.287 220.783 144.374 220.3 143.114 220.3C142.099 220.3 141.298 220.715 140.712 221.545C140.136 222.375 139.848 223.615 139.848 225.266Z" fill="white"/>
</svg>
