<svg width="299" height="270" viewBox="0 0 299 270" fill="none" xmlns="http://www.w3.org/2000/svg">
<path d="M4.76349 38.6113H282.237C283.5 38.6113 284.712 39.1166 285.605 40.0159C286.498 40.9153 287 42.1351 287 43.4069V265.204C287 266.476 286.498 267.696 285.605 268.595C284.712 269.495 283.5 270 282.237 270H4.76349C3.50013 270 2.28852 269.495 1.39519 268.595C0.501866 267.696 0 266.476 0 265.204V43.4069C0 42.1351 0.501866 40.9153 1.39519 40.0159C2.28852 39.1166 3.50013 38.6113 4.76349 38.6113Z" fill="#FB6C04"/>
<g opacity="0.5">
<path opacity="0.5" d="M253.73 92.3105C277.985 92.3105 297.649 73.728 297.649 50.8054C297.649 27.8828 277.985 9.30029 253.73 9.30029C229.474 9.30029 209.811 27.8828 209.811 50.8054C209.811 73.728 229.474 92.3105 253.73 92.3105Z" stroke="white"/>
</g>
<path d="M234.757 98.9527C263.669 98.9527 287.108 77.0997 287.108 50.1427C287.108 23.1857 263.669 1.33276 234.757 1.33276C205.844 1.33276 182.405 23.1857 182.405 50.1427C182.405 77.0997 205.844 98.9527 234.757 98.9527Z" stroke="white"/>
<g opacity="0.2">
<path opacity="0.2" d="M220.352 115.555C249.07 115.555 272.352 93.5531 272.352 66.4127C272.352 39.2724 249.07 17.2708 220.352 17.2708C191.633 17.2708 168.352 39.2724 168.352 66.4127C168.352 93.5531 191.633 115.555 220.352 115.555Z" stroke="white"/>
</g>
<path d="M48.2353 61.5034C46.1154 61.5059 44.0828 62.4752 42.5823 64.1992L36.3247 71.4028L34.4746 73.5327L24.3444 85.2017C23.6012 86.0556 23.0116 87.0698 22.6093 88.1864C22.2071 89.3029 22 90.4998 22 91.7086C22 92.9174 22.2071 94.1143 22.6093 95.2308C23.0116 96.3473 23.6012 97.3616 24.3444 98.2155L28.3058 102.776L30.6316 105.453L42.5834 119.218C43.3264 120.074 44.2087 120.752 45.1799 121.214C46.151 121.677 47.1919 121.914 48.2428 121.912C49.2937 121.91 50.334 121.67 51.304 121.204C52.274 120.739 53.1547 120.058 53.8956 119.2L67.7249 103.289L72.1377 98.2216C73.6329 96.4927 74.4714 94.1518 74.4694 91.7122C74.4674 89.2726 73.6251 86.9335 72.1272 85.2078L70.1132 82.8954L61.5392 73.0203L53.8987 64.2053C53.1555 63.3481 52.2727 62.6683 51.3009 62.2047C50.329 61.741 49.2873 61.5027 48.2353 61.5034V61.5034ZM48.2353 67.5448C48.5963 67.5386 48.9546 67.6169 49.2885 67.7751C49.6223 67.9332 49.9248 68.1679 50.1774 68.4649V68.4649L54.1229 73.0069L47.7796 80.3165L41.8867 73.5266L46.2889 68.4649C46.5417 68.1668 46.8447 67.9314 47.1795 67.7732C47.5142 67.615 47.8735 67.5373 48.2353 67.5448V67.5448ZM57.8337 77.2812L62.9273 83.151L56.547 90.413L51.4936 84.5944L57.8337 77.2812ZM38.1865 77.8118L44.0751 84.5956L32.006 98.5015L28.0446 93.9449C27.5309 93.3533 27.2424 92.5511 27.2424 91.7147C27.2424 90.8782 27.5309 90.076 28.0446 89.4844V89.4844L38.1865 77.8118ZM66.6434 87.4264L68.4216 89.4735C68.6835 89.7637 68.8903 90.1133 69.0288 90.5003C69.1672 90.8872 69.2345 91.303 69.2262 91.7214V91.7396C69.2271 92.1537 69.1558 92.5638 69.0168 92.9457C68.8777 93.3276 68.6735 93.6736 68.4164 93.9632L64.0141 99.0188L60.2579 94.6873L66.6434 87.4264ZM47.7849 88.8711L60.3044 103.289L50.1731 114.952H50.1626C49.6475 115.54 48.951 115.869 48.2257 115.867C47.5004 115.864 46.8054 115.531 46.2932 114.94L35.721 102.77L47.7849 88.8711Z" fill="white"/>
<path d="M29.9727 180.672L36.125 197.02L42.2627 180.672H47.0527V202H43.3613V194.969L43.7275 185.564L37.4287 202H34.7773L28.4932 185.579L28.8594 194.969V202H25.168V180.672H29.9727ZM50.4365 193.929C50.4365 192.376 50.7441 190.979 51.3594 189.739C51.9746 188.489 52.8389 187.532 53.9521 186.868C55.0654 186.194 56.3447 185.857 57.79 185.857C59.9287 185.857 61.6621 186.546 62.9902 187.923C64.3281 189.3 65.0508 191.126 65.1582 193.401L65.1729 194.236C65.1729 195.799 64.8701 197.195 64.2646 198.426C63.6689 199.656 62.8096 200.608 61.6865 201.282C60.5732 201.956 59.2842 202.293 57.8193 202.293C55.583 202.293 53.791 201.551 52.4434 200.066C51.1055 198.572 50.4365 196.585 50.4365 194.104V193.929ZM53.9961 194.236C53.9961 195.867 54.333 197.146 55.0068 198.074C55.6807 198.992 56.6182 199.451 57.8193 199.451C59.0205 199.451 59.9531 198.982 60.6172 198.045C61.291 197.107 61.6279 195.735 61.6279 193.929C61.6279 192.327 61.2812 191.058 60.5879 190.12C59.9043 189.183 58.9717 188.714 57.79 188.714C56.6279 188.714 55.7051 189.178 55.0215 190.105C54.3379 191.023 53.9961 192.4 53.9961 194.236ZM72.6436 182.298V186.15H75.4414V188.787H72.6436V197.635C72.6436 198.24 72.7607 198.68 72.9951 198.953C73.2393 199.217 73.6689 199.349 74.2842 199.349C74.6943 199.349 75.1094 199.3 75.5293 199.202V201.956C74.7188 202.181 73.9375 202.293 73.1855 202.293C70.4512 202.293 69.084 200.784 69.084 197.767V188.787H66.4766V186.15H69.084V182.298H72.6436ZM81.96 202H78.4004V186.15H81.96V202ZM78.1807 182.034C78.1807 181.487 78.3516 181.033 78.6934 180.672C79.0449 180.311 79.543 180.13 80.1875 180.13C80.832 180.13 81.3301 180.311 81.6816 180.672C82.0332 181.033 82.209 181.487 82.209 182.034C82.209 182.571 82.0332 183.021 81.6816 183.382C81.3301 183.733 80.832 183.909 80.1875 183.909C79.543 183.909 79.0449 183.733 78.6934 183.382C78.3516 183.021 78.1807 182.571 78.1807 182.034ZM91.4375 197.488L94.792 186.15H98.4688L92.9756 202H89.8848L84.3477 186.15H88.0391L91.4375 197.488ZM109.938 202C109.782 201.697 109.646 201.204 109.528 200.521C108.396 201.702 107.009 202.293 105.368 202.293C103.776 202.293 102.478 201.839 101.472 200.931C100.466 200.022 99.9629 198.899 99.9629 197.562C99.9629 195.872 100.588 194.578 101.838 193.68C103.098 192.771 104.895 192.317 107.229 192.317H109.411V191.277C109.411 190.457 109.182 189.803 108.723 189.314C108.264 188.816 107.565 188.567 106.628 188.567C105.817 188.567 105.153 188.772 104.636 189.183C104.118 189.583 103.859 190.096 103.859 190.721H100.3C100.3 189.852 100.588 189.041 101.164 188.289C101.74 187.527 102.521 186.932 103.508 186.502C104.504 186.072 105.612 185.857 106.833 185.857C108.688 185.857 110.168 186.326 111.271 187.264C112.375 188.191 112.941 189.5 112.971 191.189V198.338C112.971 199.764 113.171 200.901 113.571 201.751V202H109.938ZM106.027 199.437C106.73 199.437 107.39 199.266 108.005 198.924C108.63 198.582 109.099 198.123 109.411 197.547V194.559H107.492C106.174 194.559 105.183 194.788 104.519 195.247C103.854 195.706 103.522 196.355 103.522 197.195C103.522 197.879 103.747 198.426 104.196 198.836C104.655 199.236 105.266 199.437 106.027 199.437ZM121.159 182.298V186.15H123.957V188.787H121.159V197.635C121.159 198.24 121.276 198.68 121.511 198.953C121.755 199.217 122.185 199.349 122.8 199.349C123.21 199.349 123.625 199.3 124.045 199.202V201.956C123.234 202.181 122.453 202.293 121.701 202.293C118.967 202.293 117.6 200.784 117.6 197.767V188.787H114.992V186.15H117.6V182.298H121.159ZM130.476 202H126.916V186.15H130.476V202ZM126.696 182.034C126.696 181.487 126.867 181.033 127.209 180.672C127.561 180.311 128.059 180.13 128.703 180.13C129.348 180.13 129.846 180.311 130.197 180.672C130.549 181.033 130.725 181.487 130.725 182.034C130.725 182.571 130.549 183.021 130.197 183.382C129.846 183.733 129.348 183.909 128.703 183.909C128.059 183.909 127.561 183.733 127.209 183.382C126.867 183.021 126.696 182.571 126.696 182.034ZM133.698 193.929C133.698 192.376 134.006 190.979 134.621 189.739C135.236 188.489 136.101 187.532 137.214 186.868C138.327 186.194 139.606 185.857 141.052 185.857C143.19 185.857 144.924 186.546 146.252 187.923C147.59 189.3 148.312 191.126 148.42 193.401L148.435 194.236C148.435 195.799 148.132 197.195 147.526 198.426C146.931 199.656 146.071 200.608 144.948 201.282C143.835 201.956 142.546 202.293 141.081 202.293C138.845 202.293 137.053 201.551 135.705 200.066C134.367 198.572 133.698 196.585 133.698 194.104V193.929ZM137.258 194.236C137.258 195.867 137.595 197.146 138.269 198.074C138.942 198.992 139.88 199.451 141.081 199.451C142.282 199.451 143.215 198.982 143.879 198.045C144.553 197.107 144.89 195.735 144.89 193.929C144.89 192.327 144.543 191.058 143.85 190.12C143.166 189.183 142.233 188.714 141.052 188.714C139.89 188.714 138.967 189.178 138.283 190.105C137.6 191.023 137.258 192.4 137.258 194.236ZM154.748 186.15L154.851 187.981C156.022 186.565 157.561 185.857 159.465 185.857C162.766 185.857 164.445 187.747 164.504 191.526V202H160.944V191.731C160.944 190.726 160.725 189.983 160.285 189.505C159.855 189.017 159.147 188.772 158.161 188.772C156.726 188.772 155.656 189.422 154.953 190.721V202H151.394V186.15H154.748ZM182.521 196.243C182.521 195.257 182.79 194.354 183.327 193.533C183.864 192.703 184.924 191.722 186.506 190.589C185.676 189.544 185.095 188.655 184.763 187.923C184.44 187.19 184.279 186.482 184.279 185.799C184.279 184.129 184.787 182.811 185.803 181.844C186.818 180.867 188.186 180.379 189.904 180.379C191.457 180.379 192.727 180.838 193.713 181.756C194.709 182.664 195.207 183.792 195.207 185.14C195.207 186.028 194.982 186.849 194.533 187.601C194.084 188.343 193.347 189.085 192.321 189.827L190.871 190.882L194.987 195.745C195.583 194.573 195.881 193.27 195.881 191.834H198.972C198.972 194.461 198.356 196.614 197.126 198.294L200.261 202H196.13L194.929 200.579C193.405 201.722 191.589 202.293 189.479 202.293C187.37 202.293 185.681 201.736 184.411 200.623C183.151 199.5 182.521 198.04 182.521 196.243ZM189.582 199.451C190.783 199.451 191.906 199.051 192.951 198.25L188.293 192.757L187.839 193.079C186.667 193.968 186.081 194.983 186.081 196.126C186.081 197.112 186.398 197.913 187.033 198.528C187.668 199.144 188.518 199.451 189.582 199.451ZM187.619 185.711C187.619 186.531 188.122 187.562 189.128 188.802L190.754 187.688L191.208 187.322C191.813 186.785 192.116 186.097 192.116 185.257C192.116 184.7 191.906 184.227 191.486 183.836C191.066 183.436 190.534 183.235 189.89 183.235C189.196 183.235 188.645 183.47 188.234 183.938C187.824 184.407 187.619 184.998 187.619 185.711ZM36.3447 229.075V237H32.6387V215.672H40.7979C43.1807 215.672 45.0703 216.292 46.4668 217.532C47.873 218.772 48.5762 220.413 48.5762 222.454C48.5762 224.544 47.8877 226.17 46.5107 227.332C45.1436 228.494 43.2246 229.075 40.7539 229.075H36.3447ZM36.3447 226.102H40.7979C42.1162 226.102 43.1221 225.794 43.8154 225.179C44.5088 224.554 44.8555 223.655 44.8555 222.483C44.8555 221.331 44.5039 220.413 43.8008 219.729C43.0977 219.036 42.1309 218.68 40.9004 218.66H36.3447V226.102ZM59.7822 224.402C59.3135 224.324 58.8301 224.285 58.332 224.285C56.7012 224.285 55.6025 224.91 55.0361 226.16V237H51.4766V221.15H54.875L54.9629 222.923C55.8223 221.546 57.0137 220.857 58.5371 220.857C59.0449 220.857 59.4648 220.926 59.7969 221.062L59.7822 224.402ZM60.8369 228.929C60.8369 227.376 61.1445 225.979 61.7598 224.739C62.375 223.489 63.2393 222.532 64.3525 221.868C65.4658 221.194 66.7451 220.857 68.1904 220.857C70.3291 220.857 72.0625 221.546 73.3906 222.923C74.7285 224.3 75.4512 226.126 75.5586 228.401L75.5732 229.236C75.5732 230.799 75.2705 232.195 74.665 233.426C74.0693 234.656 73.21 235.608 72.0869 236.282C70.9736 236.956 69.6846 237.293 68.2197 237.293C65.9834 237.293 64.1914 236.551 62.8438 235.066C61.5059 233.572 60.8369 231.585 60.8369 229.104V228.929ZM64.3965 229.236C64.3965 230.867 64.7334 232.146 65.4072 233.074C66.0811 233.992 67.0186 234.451 68.2197 234.451C69.4209 234.451 70.3535 233.982 71.0176 233.045C71.6914 232.107 72.0283 230.735 72.0283 228.929C72.0283 227.327 71.6816 226.058 70.9883 225.12C70.3047 224.183 69.3721 223.714 68.1904 223.714C67.0283 223.714 66.1055 224.178 65.4219 225.105C64.7383 226.023 64.3965 227.4 64.3965 229.236ZM79.8359 237V223.787H77.4189V221.15H79.8359V219.7C79.8359 217.942 80.3242 216.585 81.3008 215.628C82.2773 214.671 83.6445 214.192 85.4023 214.192C86.0273 214.192 86.6914 214.28 87.3945 214.456L87.3066 217.239C86.916 217.161 86.4619 217.122 85.9443 217.122C84.2451 217.122 83.3955 217.996 83.3955 219.744V221.15H86.6182V223.787H83.3955V237H79.8359ZM95.8467 237.293C93.5908 237.293 91.7598 236.585 90.3535 235.169C88.957 233.743 88.2588 231.849 88.2588 229.485V229.046C88.2588 227.464 88.5615 226.053 89.167 224.812C89.7822 223.562 90.6416 222.591 91.7451 221.897C92.8486 221.204 94.0791 220.857 95.4365 220.857C97.5947 220.857 99.2598 221.546 100.432 222.923C101.613 224.3 102.204 226.248 102.204 228.768V230.203H91.8477C91.9551 231.512 92.3896 232.547 93.1514 233.309C93.9229 234.07 94.8896 234.451 96.0518 234.451C97.6826 234.451 99.0107 233.792 100.036 232.474L101.955 234.305C101.32 235.252 100.471 235.989 99.4062 236.517C98.3516 237.034 97.165 237.293 95.8467 237.293ZM95.4219 223.714C94.4453 223.714 93.6543 224.056 93.0488 224.739C92.4531 225.423 92.0723 226.375 91.9062 227.596H98.6885V227.332C98.6104 226.141 98.293 225.242 97.7363 224.637C97.1797 224.021 96.4082 223.714 95.4219 223.714ZM113.864 232.693C113.864 232.059 113.601 231.575 113.073 231.243C112.556 230.911 111.691 230.618 110.48 230.364C109.27 230.11 108.259 229.788 107.448 229.397C105.671 228.538 104.782 227.293 104.782 225.662C104.782 224.295 105.358 223.152 106.511 222.234C107.663 221.316 109.128 220.857 110.905 220.857C112.8 220.857 114.328 221.326 115.49 222.264C116.662 223.201 117.248 224.417 117.248 225.911H113.688C113.688 225.228 113.435 224.661 112.927 224.212C112.419 223.753 111.745 223.523 110.905 223.523C110.124 223.523 109.484 223.704 108.986 224.065C108.498 224.427 108.254 224.91 108.254 225.516C108.254 226.062 108.483 226.487 108.942 226.79C109.401 227.093 110.329 227.4 111.726 227.713C113.122 228.016 114.216 228.382 115.007 228.812C115.808 229.231 116.398 229.739 116.779 230.335C117.17 230.931 117.365 231.653 117.365 232.503C117.365 233.929 116.774 235.086 115.593 235.975C114.411 236.854 112.863 237.293 110.949 237.293C109.65 237.293 108.493 237.059 107.478 236.59C106.462 236.121 105.671 235.477 105.104 234.656C104.538 233.836 104.255 232.952 104.255 232.005H107.712C107.761 232.845 108.078 233.494 108.664 233.953C109.25 234.402 110.026 234.627 110.993 234.627C111.931 234.627 112.644 234.451 113.132 234.1C113.62 233.738 113.864 233.27 113.864 232.693ZM129.362 232.693C129.362 232.059 129.099 231.575 128.571 231.243C128.054 230.911 127.189 230.618 125.979 230.364C124.768 230.11 123.757 229.788 122.946 229.397C121.169 228.538 120.28 227.293 120.28 225.662C120.28 224.295 120.856 223.152 122.009 222.234C123.161 221.316 124.626 220.857 126.403 220.857C128.298 220.857 129.826 221.326 130.988 222.264C132.16 223.201 132.746 224.417 132.746 225.911H129.187C129.187 225.228 128.933 224.661 128.425 224.212C127.917 223.753 127.243 223.523 126.403 223.523C125.622 223.523 124.982 223.704 124.484 224.065C123.996 224.427 123.752 224.91 123.752 225.516C123.752 226.062 123.981 226.487 124.44 226.79C124.899 227.093 125.827 227.4 127.224 227.713C128.62 228.016 129.714 228.382 130.505 228.812C131.306 229.231 131.896 229.739 132.277 230.335C132.668 230.931 132.863 231.653 132.863 232.503C132.863 233.929 132.272 235.086 131.091 235.975C129.909 236.854 128.361 237.293 126.447 237.293C125.148 237.293 123.991 237.059 122.976 236.59C121.96 236.121 121.169 235.477 120.603 234.656C120.036 233.836 119.753 232.952 119.753 232.005H123.21C123.259 232.845 123.576 233.494 124.162 233.953C124.748 234.402 125.524 234.627 126.491 234.627C127.429 234.627 128.142 234.451 128.63 234.1C129.118 233.738 129.362 233.27 129.362 232.693ZM139.763 237H136.203V221.15H139.763V237ZM135.983 217.034C135.983 216.487 136.154 216.033 136.496 215.672C136.848 215.311 137.346 215.13 137.99 215.13C138.635 215.13 139.133 215.311 139.484 215.672C139.836 216.033 140.012 216.487 140.012 217.034C140.012 217.571 139.836 218.021 139.484 218.382C139.133 218.733 138.635 218.909 137.99 218.909C137.346 218.909 136.848 218.733 136.496 218.382C136.154 218.021 135.983 217.571 135.983 217.034ZM142.985 228.929C142.985 227.376 143.293 225.979 143.908 224.739C144.523 223.489 145.388 222.532 146.501 221.868C147.614 221.194 148.894 220.857 150.339 220.857C152.478 220.857 154.211 221.546 155.539 222.923C156.877 224.3 157.6 226.126 157.707 228.401L157.722 229.236C157.722 230.799 157.419 232.195 156.813 233.426C156.218 234.656 155.358 235.608 154.235 236.282C153.122 236.956 151.833 237.293 150.368 237.293C148.132 237.293 146.34 236.551 144.992 235.066C143.654 233.572 142.985 231.585 142.985 229.104V228.929ZM146.545 229.236C146.545 230.867 146.882 232.146 147.556 233.074C148.229 233.992 149.167 234.451 150.368 234.451C151.569 234.451 152.502 233.982 153.166 233.045C153.84 232.107 154.177 230.735 154.177 228.929C154.177 227.327 153.83 226.058 153.137 225.12C152.453 224.183 151.521 223.714 150.339 223.714C149.177 223.714 148.254 224.178 147.57 225.105C146.887 226.023 146.545 227.4 146.545 229.236ZM164.035 221.15L164.138 222.981C165.31 221.565 166.848 220.857 168.752 220.857C172.053 220.857 173.732 222.747 173.791 226.526V237H170.231V226.731C170.231 225.726 170.012 224.983 169.572 224.505C169.143 224.017 168.435 223.772 167.448 223.772C166.013 223.772 164.943 224.422 164.24 225.721V237H160.681V221.15H164.035ZM186.901 237C186.745 236.697 186.608 236.204 186.491 235.521C185.358 236.702 183.972 237.293 182.331 237.293C180.739 237.293 179.44 236.839 178.435 235.931C177.429 235.022 176.926 233.899 176.926 232.562C176.926 230.872 177.551 229.578 178.801 228.68C180.061 227.771 181.857 227.317 184.191 227.317H186.374V226.277C186.374 225.457 186.145 224.803 185.686 224.314C185.227 223.816 184.528 223.567 183.591 223.567C182.78 223.567 182.116 223.772 181.599 224.183C181.081 224.583 180.822 225.096 180.822 225.721H177.263C177.263 224.852 177.551 224.041 178.127 223.289C178.703 222.527 179.484 221.932 180.471 221.502C181.467 221.072 182.575 220.857 183.796 220.857C185.651 220.857 187.131 221.326 188.234 222.264C189.338 223.191 189.904 224.5 189.934 226.189V233.338C189.934 234.764 190.134 235.901 190.534 236.751V237H186.901ZM182.99 234.437C183.693 234.437 184.353 234.266 184.968 233.924C185.593 233.582 186.062 233.123 186.374 232.547V229.559H184.455C183.137 229.559 182.146 229.788 181.481 230.247C180.817 230.706 180.485 231.355 180.485 232.195C180.485 232.879 180.71 233.426 181.159 233.836C181.618 234.236 182.229 234.437 182.99 234.437ZM197.448 237H193.889V214.5H197.448V237ZM205.124 237H201.564V221.15H205.124V237ZM201.345 217.034C201.345 216.487 201.516 216.033 201.857 215.672C202.209 215.311 202.707 215.13 203.352 215.13C203.996 215.13 204.494 215.311 204.846 215.672C205.197 216.033 205.373 216.487 205.373 217.034C205.373 217.571 205.197 218.021 204.846 218.382C204.494 218.733 203.996 218.909 203.352 218.909C202.707 218.909 202.209 218.733 201.857 218.382C201.516 218.021 201.345 217.571 201.345 217.034ZM217.897 232.693C217.897 232.059 217.634 231.575 217.106 231.243C216.589 230.911 215.725 230.618 214.514 230.364C213.303 230.11 212.292 229.788 211.481 229.397C209.704 228.538 208.815 227.293 208.815 225.662C208.815 224.295 209.392 223.152 210.544 222.234C211.696 221.316 213.161 220.857 214.938 220.857C216.833 220.857 218.361 221.326 219.523 222.264C220.695 223.201 221.281 224.417 221.281 225.911H217.722C217.722 225.228 217.468 224.661 216.96 224.212C216.452 223.753 215.778 223.523 214.938 223.523C214.157 223.523 213.518 223.704 213.02 224.065C212.531 224.427 212.287 224.91 212.287 225.516C212.287 226.062 212.517 226.487 212.976 226.79C213.435 227.093 214.362 227.4 215.759 227.713C217.155 228.016 218.249 228.382 219.04 228.812C219.841 229.231 220.432 229.739 220.812 230.335C221.203 230.931 221.398 231.653 221.398 232.503C221.398 233.929 220.808 235.086 219.626 235.975C218.444 236.854 216.896 237.293 214.982 237.293C213.684 237.293 212.526 237.059 211.511 236.59C210.495 236.121 209.704 235.477 209.138 234.656C208.571 233.836 208.288 232.952 208.288 232.005H211.745C211.794 232.845 212.111 233.494 212.697 233.953C213.283 234.402 214.06 234.627 215.026 234.627C215.964 234.627 216.677 234.451 217.165 234.1C217.653 233.738 217.897 233.27 217.897 232.693ZM227.858 221.15L227.961 222.806C229.074 221.507 230.598 220.857 232.531 220.857C234.65 220.857 236.101 221.668 236.882 223.289C238.034 221.668 239.655 220.857 241.745 220.857C243.493 220.857 244.792 221.341 245.642 222.308C246.501 223.274 246.94 224.7 246.96 226.585V237H243.4V226.688C243.4 225.682 243.181 224.944 242.741 224.476C242.302 224.007 241.574 223.772 240.559 223.772C239.748 223.772 239.084 223.992 238.566 224.432C238.059 224.861 237.702 225.428 237.497 226.131L237.512 237H233.952V226.57C233.903 224.705 232.951 223.772 231.096 223.772C229.67 223.772 228.659 224.354 228.063 225.516V237H224.504V221.15H227.858Z" fill="white"/>
</svg>
