<svg width="352" height="271" viewBox="0 0 352 271" fill="none" xmlns="http://www.w3.org/2000/svg">
<path d="M4.76349 39H282.237C283.5 39 284.711 39.5053 285.605 40.4046C286.498 41.304 287 42.5237 287 43.7956V265.593C287 266.865 286.498 268.085 285.605 268.984C284.711 269.883 283.5 270.389 282.237 270.389H4.76349C3.50013 270.389 2.28852 269.883 1.39519 268.984C0.501866 268.085 0 266.865 0 265.593V43.7956C0 42.5237 0.501866 41.304 1.39519 40.4046C2.28852 39.5053 3.50013 39 4.76349 39Z" fill="#FB6C04"/>
<g opacity="0.5">
<path opacity="0.5" d="M253.73 92.3105C277.985 92.3105 297.649 73.728 297.649 50.8054C297.649 27.8828 277.985 9.30029 253.73 9.30029C229.474 9.30029 209.811 27.8828 209.811 50.8054C209.811 73.728 229.474 92.3105 253.73 92.3105Z" stroke="white"/>
</g>
<path d="M234.757 98.9527C263.669 98.9527 287.108 77.0997 287.108 50.1427C287.108 23.1857 263.669 1.33276 234.757 1.33276C205.844 1.33276 182.405 23.1857 182.405 50.1427C182.405 77.0997 205.844 98.9527 234.757 98.9527Z" stroke="white"/>
<g opacity="0.2">
<path opacity="0.2" d="M220.352 115.555C249.07 115.555 272.352 93.5531 272.352 66.4127C272.352 39.2724 249.07 17.2708 220.352 17.2708C191.633 17.2708 168.352 39.2724 168.352 66.4127C168.352 93.5531 191.633 115.555 220.352 115.555Z" stroke="white"/>
</g>
<path d="M48.2353 61.5034C46.1154 61.5059 44.0828 62.4752 42.5823 64.1992L36.3247 71.4028L34.4746 73.5327L24.3444 85.2017C23.6012 86.0556 23.0116 87.0698 22.6093 88.1864C22.2071 89.3029 22 90.4998 22 91.7086C22 92.9174 22.2071 94.1143 22.6093 95.2308C23.0116 96.3473 23.6012 97.3616 24.3444 98.2155L28.3058 102.776L30.6316 105.453L42.5834 119.218C43.3264 120.074 44.2087 120.752 45.1799 121.214C46.151 121.677 47.1919 121.914 48.2428 121.912C49.2937 121.91 50.334 121.67 51.304 121.204C52.274 120.739 53.1547 120.058 53.8956 119.2L67.7249 103.289L72.1377 98.2216C73.6329 96.4927 74.4714 94.1518 74.4694 91.7122C74.4674 89.2726 73.6251 86.9335 72.1272 85.2078L70.1132 82.8954L61.5392 73.0203L53.8987 64.2053C53.1555 63.3481 52.2727 62.6683 51.3009 62.2047C50.329 61.741 49.2873 61.5027 48.2353 61.5034V61.5034ZM48.2353 67.5448C48.5963 67.5386 48.9546 67.6169 49.2885 67.7751C49.6223 67.9332 49.9248 68.1679 50.1774 68.4649V68.4649L54.1229 73.0069L47.7796 80.3165L41.8867 73.5266L46.2889 68.4649C46.5417 68.1668 46.8447 67.9314 47.1795 67.7732C47.5142 67.615 47.8735 67.5373 48.2353 67.5448V67.5448ZM57.8337 77.2812L62.9273 83.151L56.547 90.413L51.4936 84.5944L57.8337 77.2812ZM38.1865 77.8118L44.0751 84.5956L32.006 98.5015L28.0446 93.9449C27.5309 93.3533 27.2424 92.5511 27.2424 91.7147C27.2424 90.8782 27.5309 90.076 28.0446 89.4844V89.4844L38.1865 77.8118ZM66.6434 87.4264L68.4216 89.4735C68.6835 89.7637 68.8903 90.1133 69.0288 90.5003C69.1672 90.8872 69.2345 91.303 69.2262 91.7214V91.7396C69.2271 92.1537 69.1558 92.5638 69.0168 92.9457C68.8777 93.3276 68.6735 93.6736 68.4164 93.9632L64.0141 99.0188L60.2579 94.6873L66.6434 87.4264ZM47.7849 88.8711L60.3044 103.289L50.1731 114.952H50.1626C49.6475 115.54 48.951 115.869 48.2257 115.867C47.5004 115.864 46.8054 115.531 46.2932 114.94L35.721 102.77L47.7849 88.8711Z" fill="white"/>
<path d="M43.7363 192.757H35.2988V198.47H45.2012V202H30.9043V180.672H45.1719V184.231H35.2988V189.314H43.7363V192.757ZM51.3975 186.15L51.5293 187.981C52.6621 186.565 54.1807 185.857 56.085 185.857C57.7646 185.857 59.0146 186.351 59.835 187.337C60.6553 188.323 61.0752 189.798 61.0947 191.761V202H56.8613V191.863C56.8613 190.965 56.666 190.315 56.2754 189.915C55.8848 189.505 55.2354 189.3 54.3271 189.3C53.1357 189.3 52.2422 189.808 51.6465 190.823V202H47.4131V186.15H51.3975ZM63.7021 193.958C63.7021 191.526 64.2783 189.568 65.4307 188.084C66.5928 186.6 68.1553 185.857 70.1182 185.857C71.8564 185.857 73.209 186.453 74.1758 187.645L74.3516 186.15H78.1895V201.473C78.1895 202.859 77.8721 204.065 77.2373 205.091C76.6123 206.116 75.7285 206.897 74.5859 207.435C73.4434 207.972 72.1055 208.24 70.5723 208.24C69.4102 208.24 68.2773 208.006 67.1738 207.537C66.0703 207.078 65.2354 206.482 64.6689 205.75L66.5439 203.172C67.5986 204.354 68.8779 204.944 70.3818 204.944C71.5049 204.944 72.3789 204.642 73.0039 204.036C73.6289 203.44 73.9414 202.591 73.9414 201.487V200.638C72.9648 201.741 71.6807 202.293 70.0889 202.293C68.1846 202.293 66.6416 201.551 65.46 200.066C64.2881 198.572 63.7021 196.595 63.7021 194.134V193.958ZM67.9355 194.266C67.9355 195.701 68.2236 196.829 68.7998 197.649C69.376 198.46 70.167 198.865 71.1729 198.865C72.4619 198.865 73.3848 198.382 73.9414 197.415V190.75C73.375 189.783 72.4619 189.3 71.2021 189.3C70.1865 189.3 69.3857 189.715 68.7998 190.545C68.2236 191.375 67.9355 192.615 67.9355 194.266ZM85.9238 202H81.6758V179.5H85.9238V202ZM93.8926 202H89.6445V186.15H93.8926V202ZM89.3955 182.049C89.3955 181.414 89.6055 180.892 90.0254 180.481C90.4551 180.071 91.0361 179.866 91.7686 179.866C92.4912 179.866 93.0674 180.071 93.4971 180.481C93.9268 180.892 94.1416 181.414 94.1416 182.049C94.1416 182.693 93.9219 183.221 93.4824 183.631C93.0527 184.041 92.4814 184.246 91.7686 184.246C91.0557 184.246 90.4795 184.041 90.04 183.631C89.6104 183.221 89.3955 182.693 89.3955 182.049ZM105.978 197.62C105.978 197.103 105.719 196.697 105.201 196.404C104.693 196.102 103.873 195.833 102.74 195.599C98.9707 194.808 97.0859 193.206 97.0859 190.794C97.0859 189.388 97.667 188.216 98.8291 187.278C100.001 186.331 101.529 185.857 103.414 185.857C105.426 185.857 107.032 186.331 108.233 187.278C109.444 188.226 110.05 189.456 110.05 190.97H105.816C105.816 190.364 105.621 189.866 105.23 189.476C104.84 189.075 104.229 188.875 103.399 188.875C102.687 188.875 102.135 189.036 101.744 189.358C101.354 189.681 101.158 190.091 101.158 190.589C101.158 191.058 101.378 191.438 101.817 191.731C102.267 192.015 103.019 192.264 104.073 192.479C105.128 192.684 106.017 192.918 106.739 193.182C108.976 194.002 110.094 195.423 110.094 197.444C110.094 198.89 109.474 200.062 108.233 200.96C106.993 201.849 105.392 202.293 103.429 202.293C102.101 202.293 100.919 202.059 99.8838 201.59C98.8584 201.111 98.0527 200.462 97.4668 199.642C96.8809 198.812 96.5879 197.918 96.5879 196.961H100.602C100.641 197.713 100.919 198.289 101.437 198.689C101.954 199.09 102.647 199.29 103.517 199.29C104.327 199.29 104.938 199.139 105.348 198.836C105.768 198.523 105.978 198.118 105.978 197.62ZM116.964 187.879C118.087 186.531 119.498 185.857 121.197 185.857C124.635 185.857 126.378 187.854 126.427 191.849V202H122.193V191.966C122.193 191.058 121.998 190.389 121.607 189.959C121.217 189.52 120.567 189.3 119.659 189.3C118.419 189.3 117.521 189.778 116.964 190.735V202H112.73V179.5H116.964V187.879ZM46.2705 232.192H42.7695V240H38.375V218.672H46.2998C48.8193 218.672 50.7627 219.233 52.1299 220.356C53.4971 221.479 54.1807 223.066 54.1807 225.117C54.1807 226.572 53.8633 227.788 53.2285 228.765C52.6035 229.731 51.6514 230.503 50.3721 231.079L54.9863 239.795V240H50.2695L46.2705 232.192ZM42.7695 228.633H46.3145C47.418 228.633 48.2725 228.354 48.8779 227.798C49.4834 227.231 49.7861 226.455 49.7861 225.469C49.7861 224.463 49.498 223.672 48.9219 223.096C48.3555 222.52 47.4814 222.231 46.2998 222.231H42.7695V228.633ZM64.5518 240.293C62.2275 240.293 60.333 239.58 58.8682 238.154C57.4131 236.729 56.6855 234.829 56.6855 232.456V232.046C56.6855 230.454 56.9932 229.033 57.6084 227.783C58.2236 226.523 59.0928 225.557 60.2158 224.883C61.3486 224.199 62.6377 223.857 64.083 223.857C66.251 223.857 67.9551 224.541 69.1953 225.908C70.4453 227.275 71.0703 229.214 71.0703 231.724V233.452H60.9775C61.1143 234.487 61.5244 235.317 62.208 235.942C62.9014 236.567 63.7754 236.88 64.8301 236.88C66.4609 236.88 67.7354 236.289 68.6533 235.107L70.7334 237.437C70.0986 238.335 69.2393 239.038 68.1553 239.546C67.0713 240.044 65.8701 240.293 64.5518 240.293ZM64.0684 227.285C63.2285 227.285 62.5449 227.568 62.0176 228.135C61.5 228.701 61.168 229.512 61.0215 230.566H66.9102V230.229C66.8906 229.292 66.6367 228.569 66.1484 228.062C65.6602 227.544 64.9668 227.285 64.0684 227.285ZM72.8281 231.929C72.8281 229.438 73.3799 227.471 74.4834 226.025C75.5967 224.58 77.1201 223.857 79.0537 223.857C80.7529 223.857 82.1055 224.507 83.1113 225.806L83.3896 224.15H87.1104V246.094H82.8623V238.638C81.8857 239.741 80.6064 240.293 79.0244 240.293C77.1396 240.293 75.6357 239.561 74.5127 238.096C73.3896 236.631 72.8281 234.575 72.8281 231.929ZM77.0615 232.236C77.0615 233.75 77.3252 234.902 77.8525 235.693C78.3896 236.484 79.1416 236.88 80.1084 236.88C81.4072 236.88 82.3252 236.362 82.8623 235.327V228.779C82.335 227.783 81.4268 227.285 80.1377 227.285C79.1611 227.285 78.4043 227.681 77.8672 228.472C77.3301 229.263 77.0615 230.518 77.0615 232.236ZM99.9424 238.389C98.8975 239.658 97.4521 240.293 95.6064 240.293C93.9072 240.293 92.6084 239.805 91.71 238.828C90.8213 237.852 90.3672 236.421 90.3477 234.536V224.15H94.5811V234.39C94.5811 236.04 95.333 236.865 96.8369 236.865C98.2725 236.865 99.2588 236.367 99.7959 235.371V224.15H104.044V240H100.06L99.9424 238.389ZM111.705 240H107.457V224.15H111.705V240ZM107.208 220.049C107.208 219.414 107.418 218.892 107.838 218.481C108.268 218.071 108.849 217.866 109.581 217.866C110.304 217.866 110.88 218.071 111.31 218.481C111.739 218.892 111.954 219.414 111.954 220.049C111.954 220.693 111.734 221.221 111.295 221.631C110.865 222.041 110.294 222.246 109.581 222.246C108.868 222.246 108.292 222.041 107.853 221.631C107.423 221.221 107.208 220.693 107.208 220.049ZM124.112 228.12C123.536 228.042 123.028 228.003 122.589 228.003C120.987 228.003 119.938 228.545 119.439 229.629V240H115.206V224.15H119.205L119.322 226.04C120.172 224.585 121.349 223.857 122.853 223.857C123.321 223.857 123.761 223.921 124.171 224.048L124.112 228.12ZM133.165 240.293C130.841 240.293 128.946 239.58 127.481 238.154C126.026 236.729 125.299 234.829 125.299 232.456V232.046C125.299 230.454 125.606 229.033 126.222 227.783C126.837 226.523 127.706 225.557 128.829 224.883C129.962 224.199 131.251 223.857 132.696 223.857C134.864 223.857 136.568 224.541 137.809 225.908C139.059 227.275 139.684 229.214 139.684 231.724V233.452H129.591C129.728 234.487 130.138 235.317 130.821 235.942C131.515 236.567 132.389 236.88 133.443 236.88C135.074 236.88 136.349 236.289 137.267 235.107L139.347 237.437C138.712 238.335 137.853 239.038 136.769 239.546C135.685 240.044 134.483 240.293 133.165 240.293ZM132.682 227.285C131.842 227.285 131.158 227.568 130.631 228.135C130.113 228.701 129.781 229.512 129.635 230.566H135.523V230.229C135.504 229.292 135.25 228.569 134.762 228.062C134.273 227.544 133.58 227.285 132.682 227.285ZM141.441 231.958C141.441 229.487 141.993 227.52 143.097 226.055C144.21 224.59 145.729 223.857 147.652 223.857C149.195 223.857 150.47 224.434 151.476 225.586V217.5H155.724V240H151.9L151.695 238.315C150.641 239.634 149.283 240.293 147.623 240.293C145.758 240.293 144.259 239.561 143.126 238.096C142.003 236.621 141.441 234.575 141.441 231.958ZM145.675 232.266C145.675 233.75 145.934 234.888 146.451 235.679C146.969 236.47 147.721 236.865 148.707 236.865C150.016 236.865 150.938 236.313 151.476 235.21V228.955C150.948 227.852 150.035 227.3 148.736 227.3C146.695 227.3 145.675 228.955 145.675 232.266Z" fill="white"/>
</svg>
