<svg width="164" height="117" viewBox="0 0 164 117" fill="none" xmlns="http://www.w3.org/2000/svg">
<path opacity="0.2" d="M35.0752 72.8378C42.1047 72.8406 48.9711 70.6386 54.7752 66.5202C42.5497 102.361 15.1063 106.573 13.6849 106.759L14.9077 117C15.4142 116.937 65.8578 109.732 70.2019 37.2552L70.0528 37.2447C70.0528 36.9659 70.1321 36.6871 70.1321 36.4084C70.1301 29.2055 68.0716 22.1649 64.2169 16.177C60.3622 10.1892 54.8844 5.52289 48.4762 2.76832C42.068 0.0137482 35.0172 -0.705406 28.2155 0.701775C21.4137 2.10896 15.1665 5.57928 10.2638 10.6739C5.36113 15.7686 2.02313 22.2587 0.671951 29.3236C-0.67923 36.3885 0.0171051 43.7109 2.67287 50.3648C5.32863 57.0187 9.82455 62.7053 15.5921 66.7054C21.3597 70.7056 28.1398 72.8396 35.0752 72.8378ZM35.0752 10.3122C40.0448 10.3123 44.9028 11.8429 49.0348 14.7104C53.1668 17.578 56.3873 21.6537 58.289 26.4222C60.1908 31.1906 60.6883 36.4377 59.7187 41.4998C58.7491 46.5619 56.356 51.2118 52.8419 54.8614C49.3278 58.5109 44.8507 60.9963 39.9766 62.0032C35.1024 63.0101 30.0503 62.4933 25.459 60.5181C20.8677 58.5429 16.9435 55.1981 14.1825 50.9066C11.4216 46.6151 9.94791 41.5697 9.94791 36.4084C9.95377 29.4891 12.603 22.8549 17.3141 17.9623C22.0251 13.0697 28.4129 10.318 35.0752 10.3122ZM128.865 72.8378C135.891 72.8406 142.754 70.6386 148.555 66.5202C136.33 102.361 108.896 106.573 107.476 106.759L108.699 117C109.204 116.937 159.638 109.732 164 37.2552L163.851 37.2447C163.851 36.9659 163.93 36.6871 163.93 36.4084C163.928 29.2059 161.87 22.1657 158.016 16.178C154.161 10.1903 148.684 5.52408 142.276 2.76923C135.869 0.0143814 128.818 -0.705345 122.017 0.701065C115.215 2.10748 108.968 5.57687 104.065 10.6706C99.1621 15.7642 95.8234 22.2535 94.4712 29.3178C93.119 36.3821 93.814 43.7041 96.4683 50.3582C99.1227 57.0123 103.617 62.6995 109.384 66.7008C115.15 70.7021 121.93 72.8378 128.865 72.8378ZM128.865 10.3122C133.834 10.3123 138.692 11.8429 142.824 14.7104C146.956 17.578 150.177 21.6537 152.078 26.4222C153.98 31.1906 154.478 36.4377 153.508 41.4998C152.539 46.5619 150.145 51.2118 146.631 54.8614C143.117 58.5109 138.64 60.9963 133.766 62.0032C128.892 63.0101 123.84 62.4933 119.248 60.5181C114.657 58.5429 110.733 55.1981 107.972 50.9066C105.211 46.6151 103.737 41.5697 103.737 36.4084C103.743 29.4891 106.392 22.8549 111.104 17.9623C115.815 13.0697 122.202 10.318 128.865 10.3122Z" fill="#FB6C04"/>
</svg>
